Coordinates
version=1
nRows=43
nColumns=12
inDegrees=yes

Units are S.I. units (second, meters, Newtons, ...)
Angles are in degrees

endheader
time	SC_y	SC_z	SC_x	AC_y	AC_z	AC_x	GH_y	GH_z	GH_yy	EL_x	PS_y
       0.0              -48.28           30.6          24.99          53.11         -13.43         -9.492          16.08          74.27          11.75          112.3          100.2
   0.04252              -48.28           30.6          24.99          53.11         -13.43         -9.488          16.08          74.27          11.75          112.3          100.2
   0.08504              -48.28          30.61          24.98          53.12         -13.42         -9.484          16.09          74.27          11.75          112.3          100.1
    0.1276              -48.28          30.61          24.98          53.12         -13.42          -9.48          16.09          74.27          11.76          112.3          100.1
    0.1701              -48.28          30.61          24.98          53.12         -13.42         -9.476          16.09          74.27          11.76          112.3          100.1
    0.2126              -48.28          30.61          24.98          53.12         -13.42         -9.472           16.1          74.27          11.76          112.3          100.1
    0.2551              -48.28          30.61          24.98          53.13         -13.41         -9.467           16.1          74.27          11.76          112.3          100.1
    0.2977              -48.28          30.61          24.97          53.13         -13.41         -9.462           16.1          74.27          11.76          112.3          100.1
    0.3402              -48.28          30.62          24.97          53.13         -13.41         -9.456          16.11          74.27          11.76          112.4          100.1
    0.3827              -48.28          30.62          24.97          53.13          -13.4          -9.45          16.11          74.27          11.76          112.4          100.1
    0.4252              -48.28          30.62          24.97          53.14          -13.4         -9.444          16.11          74.27          11.76          112.4          100.1
    0.4677              -48.28          30.62          24.96          53.14         -13.39         -9.437          16.12          74.27          11.77          112.4          100.1
    0.5103              -48.28          30.63          24.96          53.14         -13.39          -9.43          16.12          74.28          11.77          112.4          100.1
    0.5528              -48.29          30.63          24.96          53.15         -13.38         -9.422          16.13          74.28          11.77          112.4          100.1
    0.5953              -48.29          30.63          24.95          53.15         -13.38         -9.413          16.14          74.28          11.77          112.4          100.1
    0.6378              -48.29          30.64          24.95          53.16         -13.37         -9.404          16.14          74.28          11.78          112.4          100.0
    0.6804              -48.29          30.64          24.94          53.16         -13.36         -9.394          16.15          74.28          11.78          112.4          100.0
    0.7229              -48.29          30.64          24.94          53.17         -13.36         -9.383          16.16          74.28          11.78          112.4          100.0
    0.7654              -48.29          30.65          24.93          53.18         -13.35         -9.371          16.17          74.28          11.78          112.4          99.99
    0.8079              -48.29          30.65          24.93          53.18         -13.34         -9.357          16.18          74.28          11.79          112.4          99.98
    0.8504              -48.29          30.66          24.92          53.19         -13.33         -9.343          16.19          74.28          11.79          112.4          99.96
     0.893               -48.3          30.66          24.91           53.2         -13.32         -9.327           16.2          74.28           11.8          112.5          99.93
    0.9355               -48.3          30.67           24.9          53.21         -13.31         -9.309          16.21          74.29           11.8          112.5          99.91
     0.978               -48.3          30.68           24.9          53.22          -13.3          -9.29          16.22          74.29          11.81          112.5          99.88
     1.021               -48.3          30.69          24.89          53.23         -13.28         -9.268          16.24          74.29          11.81          112.5          99.86
     1.063              -48.31          30.69          24.87          53.24         -13.27         -9.244          16.25          74.29          11.82          112.5          99.82
     1.106              -48.31           30.7          24.86          53.26         -13.25         -9.217          16.27          74.29          11.82          112.6          99.79
     1.148              -48.31          30.72          24.85          53.27         -13.23         -9.186          16.29          74.29          11.83          112.6          99.75
     1.191              -48.32          30.73          24.83          53.29         -13.21         -9.151          16.32           74.3          11.84          112.6           99.7
     1.233              -48.32          30.74          24.82          53.31         -13.18         -9.112          16.35           74.3          11.85          112.7          99.65
     1.276              -48.33          30.76           24.8          53.33         -13.15         -9.067          16.38           74.3          11.86          112.7          99.59
     1.318              -48.33          30.78          24.77          53.36         -13.12         -9.016          16.41          74.31          11.88          112.7          99.52
     1.361              -48.34           30.8          24.75          53.39         -13.08         -8.957          16.45          74.31          11.89          112.8          99.44
     1.403              -48.35          30.83          24.71          53.43         -13.03         -8.888           16.5          74.32          11.91          112.8          99.35
     1.446              -48.36          30.86          24.68          53.47         -12.98         -8.807          16.56          74.33          11.93          112.9          99.24
     1.488              -48.37          30.89          24.64          53.52         -12.92         -8.712          16.62          74.33          11.96          113.0          99.11
     1.531              -48.38          30.93          24.58          53.58         -12.84         -8.599           16.7          74.34          11.99          113.1          98.96
     1.573               -48.4          30.98          24.52          53.65         -12.76         -8.464           16.8          74.35          12.02          113.2          98.78
     1.616              -48.42          31.04          24.45          53.73         -12.65           -8.3          16.91          74.37          12.07          113.4          98.56
     1.658              -48.44          31.12          24.36          53.84         -12.52           -8.1          17.05          74.38          12.12          113.5          98.29
     1.701              -48.47          31.21          24.25          53.97         -12.36         -7.853          17.22           74.4          12.18          113.8          97.96
     1.743              -48.51          31.32          24.11          54.13         -12.16         -7.545          17.44          74.43          12.27          114.0          97.54
     1.786              -48.55          31.47          23.93          54.33          -11.9         -7.157          17.71          74.46          12.37          114.4          97.02
